<svg xmlns="http://www.w3.org/2000/svg" width="201.381" height="182.328" viewBox="0 0 201.381 182.328"><defs><style>.a{fill:#f0f4ff;}.b{fill:#7432ff;}</style></defs><g transform="translate(15.871 -300.708)"><rect class="a" width="156.227" height="156.227" transform="translate(29.283 326.809)"/><g transform="translate(-15.871 300.708)"><g transform="translate(0 16.8)"><path class="b" d="M-11.781,317.1a4.116,4.116,0,0,0,2.892-1.2,4.117,4.117,0,0,0,1.2-2.892,4.121,4.121,0,0,0-1.2-2.892,4.125,4.125,0,0,0-2.892-1.2,4.126,4.126,0,0,0-2.894,1.2,4.119,4.119,0,0,0-1.2,2.892,4.116,4.116,0,0,0,1.2,2.892,4.117,4.117,0,0,0,2.894,1.2" transform="translate(15.871 -308.923)"/><g transform="translate(42.169)"><path class="b" d="M8.839,317.1h.02a4.09,4.09,0,1,0,0-8.18h-.02a4.09,4.09,0,1,0,0,8.18Z" transform="translate(-4.749 -308.923)"/></g><g transform="translate(21.079)"><path class="b" d="M-1.474,317.1h.02a4.089,4.089,0,0,0,4.09-4.09,4.089,4.089,0,0,0-4.09-4.09h-.02a4.09,4.09,0,0,0-4.09,4.09A4.09,4.09,0,0,0-1.474,317.1Z" transform="translate(5.564 -308.923)"/></g><g transform="translate(63.271)"><path class="b" d="M19.157,317.1a4.092,4.092,0,1,0-2.892-1.2,4.113,4.113,0,0,0,2.892,1.2" transform="translate(-15.067 -308.923)"/></g><g transform="translate(84.361)"><path class="b" d="M29.47,317.1a4.088,4.088,0,1,0-2.894-1.2,4.116,4.116,0,0,0,2.894,1.2" transform="translate(-25.38 -308.923)"/></g><g transform="translate(126.531)"><path class="b" d="M50.09,317.1h.02a4.09,4.09,0,0,0,0-8.18h-.02a4.09,4.09,0,1,0,0,8.18Z" transform="translate(-46 -308.923)"/></g><g transform="translate(105.44)"><path class="b" d="M39.777,317.1h.02a4.09,4.09,0,0,0,0-8.18h-.02a4.09,4.09,0,1,0,0,8.18Z" transform="translate(-35.687 -308.923)"/></g><g transform="translate(147.632)"><path class="b" d="M60.408,317.1a4.088,4.088,0,1,0-2.894-1.2,4.116,4.116,0,0,0,2.894,1.2" transform="translate(-56.318 -308.923)"/></g></g><path class="b" d="M-11.781,308.888a4.125,4.125,0,0,0,2.892-1.2,4.125,4.125,0,0,0,1.2-2.892,4.126,4.126,0,0,0-1.2-2.894,4.123,4.123,0,0,0-2.892-1.2,4.124,4.124,0,0,0-2.894,1.2,4.124,4.124,0,0,0-1.2,2.894,4.123,4.123,0,0,0,1.2,2.892,4.126,4.126,0,0,0,2.894,1.2" transform="translate(15.871 -300.708)"/><g transform="translate(42.169)"><path class="b" d="M8.839,308.888h.02a4.09,4.09,0,1,0,0-8.18h-.02a4.09,4.09,0,1,0,0,8.18Z" transform="translate(-4.749 -300.708)"/></g><g transform="translate(21.079)"><path class="b" d="M-1.474,308.888h.02a4.09,4.09,0,0,0,4.09-4.09,4.089,4.089,0,0,0-4.09-4.09h-.02a4.09,4.09,0,0,0-4.09,4.09A4.092,4.092,0,0,0-1.474,308.888Z" transform="translate(5.564 -300.708)"/></g><g transform="translate(63.271)"><path class="b" d="M19.157,308.888a4.092,4.092,0,1,0-2.892-1.2,4.121,4.121,0,0,0,2.892,1.2" transform="translate(-15.067 -300.708)"/></g><g transform="translate(84.361)"><path class="b" d="M29.47,308.888a4.088,4.088,0,1,0-2.894-1.2,4.125,4.125,0,0,0,2.894,1.2" transform="translate(-25.38 -300.708)"/></g><g transform="translate(126.531)"><path class="b" d="M50.09,308.888h.02a4.09,4.09,0,0,0,0-8.18h-.02a4.09,4.09,0,1,0,0,8.18Z" transform="translate(-46 -300.708)"/></g><g transform="translate(105.44)"><path class="b" d="M39.777,308.888h.02a4.09,4.09,0,0,0,0-8.18h-.02a4.09,4.09,0,1,0,0,8.18Z" transform="translate(-35.687 -300.708)"/></g><g transform="translate(147.632)"><path class="b" d="M60.408,308.888a4.088,4.088,0,1,0-2.894-1.2,4.125,4.125,0,0,0,2.894,1.2" transform="translate(-56.318 -300.708)"/></g><g transform="translate(0 33.603)"><path class="b" d="M-11.781,325.319a4.125,4.125,0,0,0,2.892-1.2,4.125,4.125,0,0,0,1.2-2.892,4.126,4.126,0,0,0-1.2-2.894,4.123,4.123,0,0,0-2.892-1.2,4.124,4.124,0,0,0-2.894,1.2,4.124,4.124,0,0,0-1.2,2.894,4.123,4.123,0,0,0,1.2,2.892,4.126,4.126,0,0,0,2.894,1.2" transform="translate(15.871 -317.139)"/><g transform="translate(42.169)"><path class="b" d="M8.839,325.319h.02a4.09,4.09,0,1,0,0-8.18h-.02a4.09,4.09,0,1,0,0,8.18Z" transform="translate(-4.749 -317.139)"/></g><g transform="translate(21.079)"><path class="b" d="M-1.474,325.319h.02a4.09,4.09,0,0,0,4.09-4.09,4.089,4.089,0,0,0-4.09-4.09h-.02a4.09,4.09,0,0,0-4.09,4.09A4.092,4.092,0,0,0-1.474,325.319Z" transform="translate(5.564 -317.139)"/></g><g transform="translate(63.271)"><path class="b" d="M19.157,325.319a4.092,4.092,0,1,0-2.892-1.2,4.121,4.121,0,0,0,2.892,1.2" transform="translate(-15.067 -317.139)"/></g><g transform="translate(84.361)"><path class="b" d="M29.47,325.319a4.088,4.088,0,1,0-2.894-1.2,4.125,4.125,0,0,0,2.894,1.2" transform="translate(-25.38 -317.139)"/></g><g transform="translate(126.531)"><path class="b" d="M50.09,325.319h.02a4.09,4.09,0,0,0,0-8.18h-.02a4.09,4.09,0,1,0,0,8.18Z" transform="translate(-46 -317.139)"/></g><g transform="translate(105.44)"><path class="b" d="M39.777,325.319h.02a4.09,4.09,0,0,0,0-8.18h-.02a4.09,4.09,0,1,0,0,8.18Z" transform="translate(-35.687 -317.139)"/></g><g transform="translate(147.632)"><path class="b" d="M60.408,325.319a4.088,4.088,0,1,0-2.894-1.2,4.125,4.125,0,0,0,2.894,1.2" transform="translate(-56.318 -317.139)"/></g></g><g transform="translate(0 50.403)"><path class="b" d="M-11.781,333.534a4.125,4.125,0,0,0,2.892-1.2,4.121,4.121,0,0,0,1.2-2.892,4.117,4.117,0,0,0-1.2-2.892,4.116,4.116,0,0,0-2.892-1.2,4.117,4.117,0,0,0-2.894,1.2,4.116,4.116,0,0,0-1.2,2.892,4.119,4.119,0,0,0,1.2,2.892,4.126,4.126,0,0,0,2.894,1.2" transform="translate(15.871 -325.354)"/><g transform="translate(42.169)"><path class="b" d="M8.839,333.534h.02a4.09,4.09,0,1,0,0-8.18h-.02a4.09,4.09,0,1,0,0,8.18Z" transform="translate(-4.749 -325.354)"/></g><g transform="translate(21.079)"><path class="b" d="M-1.474,333.534h.02a4.09,4.09,0,0,0,4.09-4.09,4.089,4.089,0,0,0-4.09-4.09h-.02a4.09,4.09,0,0,0-4.09,4.09A4.092,4.092,0,0,0-1.474,333.534Z" transform="translate(5.564 -325.354)"/></g><g transform="translate(63.271)"><path class="b" d="M19.157,333.534a4.092,4.092,0,1,0-2.892-1.2,4.121,4.121,0,0,0,2.892,1.2" transform="translate(-15.067 -325.354)"/></g><g transform="translate(84.361)"><path class="b" d="M29.47,333.534a4.088,4.088,0,1,0-2.894-1.2,4.125,4.125,0,0,0,2.894,1.2" transform="translate(-25.38 -325.354)"/></g><g transform="translate(126.531)"><path class="b" d="M50.09,333.534h.02a4.09,4.09,0,0,0,0-8.18h-.02a4.09,4.09,0,1,0,0,8.18Z" transform="translate(-46 -325.354)"/></g><g transform="translate(105.44)"><path class="b" d="M39.777,333.534h.02a4.09,4.09,0,0,0,0-8.18h-.02a4.09,4.09,0,1,0,0,8.18Z" transform="translate(-35.687 -325.354)"/></g><g transform="translate(147.632)"><path class="b" d="M60.408,333.534a4.088,4.088,0,1,0-2.894-1.2,4.125,4.125,0,0,0,2.894,1.2" transform="translate(-56.318 -325.354)"/></g></g><g transform="translate(0 67.203)"><path class="b" d="M-11.781,341.749a4.116,4.116,0,0,0,2.892-1.2,4.118,4.118,0,0,0,1.2-2.892,4.121,4.121,0,0,0-1.2-2.892,4.125,4.125,0,0,0-2.892-1.2,4.126,4.126,0,0,0-2.894,1.2,4.119,4.119,0,0,0-1.2,2.892,4.116,4.116,0,0,0,1.2,2.892,4.117,4.117,0,0,0,2.894,1.2" transform="translate(15.871 -333.569)"/><g transform="translate(42.169)"><path class="b" d="M8.839,341.749h.02a4.09,4.09,0,1,0,0-8.18h-.02a4.09,4.09,0,1,0,0,8.18Z" transform="translate(-4.749 -333.569)"/></g><g transform="translate(21.079)"><path class="b" d="M-1.474,341.749h.02a4.089,4.089,0,0,0,4.09-4.09,4.09,4.09,0,0,0-4.09-4.09h-.02a4.092,4.092,0,0,0-4.09,4.09A4.09,4.09,0,0,0-1.474,341.749Z" transform="translate(5.564 -333.569)"/></g><g transform="translate(63.271)"><path class="b" d="M19.157,341.749a4.092,4.092,0,1,0-2.892-1.2,4.113,4.113,0,0,0,2.892,1.2" transform="translate(-15.067 -333.569)"/></g><g transform="translate(84.361)"><path class="b" d="M29.47,341.749a4.088,4.088,0,1,0-2.894-1.2,4.116,4.116,0,0,0,2.894,1.2" transform="translate(-25.38 -333.569)"/></g><g transform="translate(126.531)"><path class="b" d="M50.09,341.749h.02a4.09,4.09,0,0,0,0-8.18h-.02a4.09,4.09,0,1,0,0,8.18Z" transform="translate(-46 -333.569)"/></g><g transform="translate(105.44)"><path class="b" d="M39.777,341.749h.02a4.09,4.09,0,0,0,0-8.18h-.02a4.09,4.09,0,1,0,0,8.18Z" transform="translate(-35.687 -333.569)"/></g><g transform="translate(147.632)"><path class="b" d="M60.408,341.749a4.088,4.088,0,1,0-2.894-1.2,4.116,4.116,0,0,0,2.894,1.2" transform="translate(-56.318 -333.569)"/></g></g><g transform="translate(0 84.006)"><path class="b" d="M-11.781,349.965a4.125,4.125,0,0,0,2.892-1.2,4.125,4.125,0,0,0,1.2-2.892,4.126,4.126,0,0,0-1.2-2.894,4.123,4.123,0,0,0-2.892-1.2,4.124,4.124,0,0,0-2.894,1.2,4.124,4.124,0,0,0-1.2,2.894,4.123,4.123,0,0,0,1.2,2.892,4.126,4.126,0,0,0,2.894,1.2" transform="translate(15.871 -341.785)"/><g transform="translate(42.169)"><path class="b" d="M8.839,349.965h.02a4.09,4.09,0,1,0,0-8.18h-.02a4.09,4.09,0,1,0,0,8.18Z" transform="translate(-4.749 -341.785)"/></g><g transform="translate(21.079)"><path class="b" d="M-1.474,349.965h.02a4.09,4.09,0,0,0,4.09-4.09,4.089,4.089,0,0,0-4.09-4.09h-.02a4.09,4.09,0,0,0-4.09,4.09A4.092,4.092,0,0,0-1.474,349.965Z" transform="translate(5.564 -341.785)"/></g><g transform="translate(63.271)"><path class="b" d="M19.157,349.965a4.092,4.092,0,1,0-2.892-1.2,4.121,4.121,0,0,0,2.892,1.2" transform="translate(-15.067 -341.785)"/></g><g transform="translate(84.361)"><path class="b" d="M29.47,349.965a4.088,4.088,0,1,0-2.894-1.2,4.125,4.125,0,0,0,2.894,1.2" transform="translate(-25.38 -341.785)"/></g><g transform="translate(126.531)"><path class="b" d="M50.09,349.965h.02a4.09,4.09,0,0,0,0-8.18h-.02a4.09,4.09,0,1,0,0,8.18Z" transform="translate(-46 -341.785)"/></g><g transform="translate(105.44)"><path class="b" d="M39.777,349.965h.02a4.09,4.09,0,0,0,0-8.18h-.02a4.09,4.09,0,1,0,0,8.18Z" transform="translate(-35.687 -341.785)"/></g><g transform="translate(147.632)"><path class="b" d="M60.408,349.965a4.088,4.088,0,1,0-2.894-1.2,4.125,4.125,0,0,0,2.894,1.2" transform="translate(-56.318 -341.785)"/></g></g><g transform="translate(0 100.806)"><path class="b" d="M-11.781,358.18a4.116,4.116,0,0,0,2.892-1.2,4.117,4.117,0,0,0,1.2-2.892,4.117,4.117,0,0,0-1.2-2.892,4.116,4.116,0,0,0-2.892-1.2,4.117,4.117,0,0,0-2.894,1.2,4.115,4.115,0,0,0-1.2,2.892,4.116,4.116,0,0,0,1.2,2.892,4.117,4.117,0,0,0,2.894,1.2" transform="translate(15.871 -350)"/><g transform="translate(42.169)"><path class="b" d="M8.839,358.18h.02a4.09,4.09,0,1,0,0-8.18h-.02a4.09,4.09,0,1,0,0,8.18Z" transform="translate(-4.749 -350)"/></g><g transform="translate(21.079)"><path class="b" d="M-1.474,358.18h.02a4.09,4.09,0,0,0,4.09-4.09A4.089,4.089,0,0,0-1.453,350h-.02a4.09,4.09,0,0,0-4.09,4.09A4.092,4.092,0,0,0-1.474,358.18Z" transform="translate(5.564 -350)"/></g><g transform="translate(63.271)"><path class="b" d="M19.157,358.18a4.092,4.092,0,1,0-2.892-1.2,4.112,4.112,0,0,0,2.892,1.2" transform="translate(-15.067 -350)"/></g><g transform="translate(84.361)"><path class="b" d="M29.47,358.18a4.088,4.088,0,1,0-2.894-1.2,4.116,4.116,0,0,0,2.894,1.2" transform="translate(-25.38 -350)"/></g><g transform="translate(126.531)"><path class="b" d="M50.09,358.18h.02a4.09,4.09,0,0,0,0-8.18h-.02a4.09,4.09,0,1,0,0,8.18Z" transform="translate(-46 -350)"/></g><g transform="translate(105.44)"><path class="b" d="M39.777,358.18h.02a4.09,4.09,0,0,0,0-8.18h-.02a4.09,4.09,0,1,0,0,8.18Z" transform="translate(-35.687 -350)"/></g><g transform="translate(147.632)"><path class="b" d="M60.408,358.18a4.088,4.088,0,1,0-2.894-1.2,4.116,4.116,0,0,0,2.894,1.2" transform="translate(-56.318 -350)"/></g></g><g transform="translate(0 117.606)"><path class="b" d="M-11.781,366.4a4.116,4.116,0,0,0,2.892-1.2,4.117,4.117,0,0,0,1.2-2.892,4.125,4.125,0,0,0-1.2-2.892,4.125,4.125,0,0,0-2.892-1.2,4.126,4.126,0,0,0-2.894,1.2,4.123,4.123,0,0,0-1.2,2.892,4.116,4.116,0,0,0,1.2,2.892,4.117,4.117,0,0,0,2.894,1.2" transform="translate(15.871 -358.215)"/><g transform="translate(42.169)"><path class="b" d="M8.839,366.4h.02a4.09,4.09,0,1,0,0-8.18h-.02a4.09,4.09,0,1,0,0,8.18Z" transform="translate(-4.749 -358.215)"/></g><g transform="translate(21.079)"><path class="b" d="M-1.474,366.4h.02a4.089,4.089,0,0,0,4.09-4.09,4.09,4.09,0,0,0-4.09-4.09h-.02a4.092,4.092,0,0,0-4.09,4.09A4.09,4.09,0,0,0-1.474,366.4Z" transform="translate(5.564 -358.215)"/></g><g transform="translate(63.271)"><path class="b" d="M19.157,366.4a4.092,4.092,0,1,0-2.892-1.2,4.112,4.112,0,0,0,2.892,1.2" transform="translate(-15.067 -358.215)"/></g><g transform="translate(84.361)"><path class="b" d="M29.47,366.4a4.088,4.088,0,1,0-2.894-1.2,4.116,4.116,0,0,0,2.894,1.2" transform="translate(-25.38 -358.215)"/></g><g transform="translate(126.531)"><path class="b" d="M50.09,366.4h.02a4.09,4.09,0,0,0,0-8.18h-.02a4.09,4.09,0,1,0,0,8.18Z" transform="translate(-46 -358.215)"/></g><g transform="translate(105.44)"><path class="b" d="M39.777,366.4h.02a4.09,4.09,0,0,0,0-8.18h-.02a4.09,4.09,0,1,0,0,8.18Z" transform="translate(-35.687 -358.215)"/></g><g transform="translate(147.632)"><path class="b" d="M60.408,366.4a4.088,4.088,0,1,0-2.894-1.2,4.116,4.116,0,0,0,2.894,1.2" transform="translate(-56.318 -358.215)"/></g></g><g transform="translate(0 134.408)"><path class="b" d="M-11.781,374.611a4.125,4.125,0,0,0,2.892-1.2,4.125,4.125,0,0,0,1.2-2.892,4.126,4.126,0,0,0-1.2-2.894,4.123,4.123,0,0,0-2.892-1.2,4.124,4.124,0,0,0-2.894,1.2,4.124,4.124,0,0,0-1.2,2.894,4.123,4.123,0,0,0,1.2,2.892,4.126,4.126,0,0,0,2.894,1.2" transform="translate(15.871 -366.431)"/><g transform="translate(42.169)"><path class="b" d="M8.839,374.611h.02a4.09,4.09,0,0,0,0-8.18h-.02a4.09,4.09,0,0,0,0,8.18Z" transform="translate(-4.749 -366.431)"/></g><g transform="translate(21.079)"><path class="b" d="M-1.474,374.611h.02a4.09,4.09,0,0,0,4.09-4.09,4.089,4.089,0,0,0-4.09-4.09h-.02a4.09,4.09,0,0,0-4.09,4.09A4.092,4.092,0,0,0-1.474,374.611Z" transform="translate(5.564 -366.431)"/></g><g transform="translate(63.271)"><path class="b" d="M19.157,374.611a4.092,4.092,0,1,0-2.892-1.2,4.121,4.121,0,0,0,2.892,1.2" transform="translate(-15.067 -366.431)"/></g><g transform="translate(84.361)"><path class="b" d="M29.47,374.611a4.088,4.088,0,1,0-2.894-1.2,4.125,4.125,0,0,0,2.894,1.2" transform="translate(-25.38 -366.431)"/></g><g transform="translate(126.531)"><path class="b" d="M50.09,374.611h.02a4.09,4.09,0,0,0,0-8.18h-.02a4.09,4.09,0,0,0,0,8.18Z" transform="translate(-46 -366.431)"/></g><g transform="translate(105.44)"><path class="b" d="M39.777,374.611h.02a4.09,4.09,0,0,0,0-8.18h-.02a4.09,4.09,0,0,0,0,8.18Z" transform="translate(-35.687 -366.431)"/></g><g transform="translate(147.632)"><path class="b" d="M60.408,374.611a4.088,4.088,0,1,0-2.894-1.2,4.125,4.125,0,0,0,2.894,1.2" transform="translate(-56.318 -366.431)"/></g></g></g></g></svg>